<svg width="70" height="70" viewBox="0 0 70 70" fill="none" xmlns="http://www.w3.org/2000/svg">
<circle cx="35" cy="35" r="35" fill="#D9D9D9"/>
<g clip-path="url(#clip0_2458_1003)">
<path d="M45.3484 33.3152C47.1647 31.4721 48.3957 29.1332 48.8867 26.5925C49.3776 24.0518 49.1065 21.4226 48.1075 19.0355C47.1085 16.6484 45.4261 14.6099 43.2719 13.1762C41.1177 11.7425 38.5877 10.9775 36 10.9775C33.4123 10.9775 30.8823 11.7425 28.7281 13.1762C26.5739 14.6099 24.8915 16.6484 23.8925 19.0355C22.8935 21.4226 22.6224 24.0518 23.1133 26.5925C23.6043 29.1332 24.8353 31.4721 26.6516 33.3152C23.223 34.663 20.2788 37.0104 18.201 40.0525C16.1233 43.0947 15.008 46.6912 15 50.3751C14.9998 50.7199 15.0676 51.0614 15.1994 51.3799C15.3313 51.6985 15.5246 51.9879 15.7684 52.2317C16.0122 52.4755 16.3017 52.6689 16.6202 52.8007C16.9388 52.9326 17.2802 53.0003 17.625 53.0001H54.375C54.7198 53.0003 55.0612 52.9326 55.3798 52.8007C55.6983 52.6689 55.9878 52.4755 56.2316 52.2317C56.4754 51.9879 56.6687 51.6985 56.8006 51.3799C56.9324 51.0614 57.0002 50.7199 57 50.3751C56.992 46.6912 55.8767 43.0947 53.799 40.0525C51.7212 37.0104 48.777 34.663 45.3484 33.3152ZM36 16.2501C37.5575 16.2501 39.0801 16.712 40.3751 17.5773C41.6702 18.4426 42.6795 19.6725 43.2756 21.1115C43.8716 22.5505 44.0275 24.1339 43.7237 25.6615C43.4198 27.1891 42.6698 28.5923 41.5685 29.6936C40.4671 30.795 39.0639 31.545 37.5363 31.8488C36.0087 32.1527 34.4253 31.9967 32.9864 31.4007C31.5474 30.8047 30.3175 29.7953 29.4522 28.5003C28.5869 27.2052 28.125 25.6827 28.125 24.1251C28.1273 22.0373 28.9577 20.0356 30.4341 18.5592C31.9104 17.0829 33.9121 16.2525 36 16.2501ZM20.5115 47.7501C21.1214 44.7878 22.7337 42.1261 25.0768 40.2135C27.4198 38.301 30.3505 37.2544 33.375 37.2501H38.625C41.6495 37.2544 44.5802 38.301 46.9232 40.2135C49.2663 42.1261 50.8786 44.7878 51.4885 47.7501H20.5115Z" fill="#A9A9A9" stroke="#A9A9A9" stroke-width="0.00064"/>
</g>
<defs>
<clipPath id="clip0_2458_1003">
<rect width="42" height="42" fill="white" transform="translate(15 11)"/>
</clipPath>
</defs>
</svg>
