<svg width="48" height="48" viewBox="0 0 48 48" fill="none" xmlns="http://www.w3.org/2000/svg">
<path fill-rule="evenodd" clip-rule="evenodd" d="M9.83385 23.4733C9.8478 18.4089 10.7692 13.7339 12.3282 10.2526C13.1067 8.51576 14.082 6.98663 15.2633 5.87032C16.4504 4.74231 17.9414 3.95706 19.6569 3.96178L27.4723 3.98331C29.1877 3.98804 30.6724 4.78149 31.8553 5.91603C33.0304 7.03883 33.9972 8.57136 34.7661 10.3144C36.3059 13.8043 37.2016 18.4843 37.1876 23.5486C37.1737 28.613 36.2523 33.288 34.6933 36.7694C33.9148 38.5062 32.9395 40.0353 31.7582 41.1516C30.5711 42.2796 29.0801 43.0649 27.3646 43.0602L19.5492 43.0386C17.8338 43.0339 16.3491 42.2405 15.1662 41.1059C13.9911 39.9831 13.0243 38.4506 12.2553 36.7076C10.7156 33.2177 9.8199 28.5377 9.83385 23.4733ZM25.664 7.88605C26.1426 8.62006 26.5702 9.43209 26.9508 10.2928C28.4906 13.7828 29.3862 18.4628 29.3723 23.5271C29.3583 28.5915 28.4369 33.2665 26.8779 36.7479C26.5096 37.5813 26.0749 38.3838 25.5778 39.1475L27.3754 39.1525C27.8189 39.1537 28.388 38.9599 29.0736 38.3131C29.7671 37.6565 30.4831 36.6132 31.128 35.173C32.4157 32.2966 33.2672 28.1841 33.28 23.5379C33.2928 18.8897 32.4639 14.7745 31.1921 11.8911C30.5552 10.4474 29.8449 9.40008 29.1551 8.73973C28.473 8.08722 27.905 7.89222 27.4615 7.891L25.664 7.88605ZM13.7415 23.4841C13.7287 28.1323 14.5576 32.2474 15.8294 35.1309C16.4663 36.5746 17.1765 37.6219 17.8664 38.2822C18.5484 38.9347 19.1165 39.1297 19.56 39.1309C20.0035 39.1322 20.5726 38.9383 21.2583 38.2916C21.9517 37.635 22.6678 36.5917 23.3126 35.1515C24.6003 32.2751 25.4518 28.1626 25.4646 23.5164C25.4774 18.8682 24.6486 14.753 23.3767 11.8695C22.7398 10.4258 22.0296 9.37855 21.3397 8.7182C20.6577 8.06569 20.0896 7.87069 19.6461 7.86947C19.2026 7.86825 18.6335 8.06207 17.9479 8.70886C17.2544 9.3654 16.5384 10.4087 15.8935 11.8489C14.6078 14.7254 13.7543 18.8378 13.7415 23.4841Z" fill="#CC9900"/>
</svg>
