<svg width="282" height="53" viewBox="0 0 282 53" fill="none" xmlns="http://www.w3.org/2000/svg">
<rect width="282" height="53" rx="26.5" fill="#D9D9D9"/>
<path d="M46.8893 36V16.3636H51.0409V24.4656H59.4688V16.3636H63.6109V36H59.4688V27.8885H51.0409V36H46.8893ZM66.9571 36V21.2727H71.0416V36H66.9571ZM69.009 19.3743C68.4017 19.3743 67.8808 19.1729 67.4461 18.7702C67.0178 18.3611 66.8037 17.8722 66.8037 17.3033C66.8037 16.7408 67.0178 16.2582 67.4461 15.8555C67.8808 15.4464 68.4017 15.2418 69.009 15.2418C69.6162 15.2418 70.134 15.4464 70.5622 15.8555C70.9969 16.2582 71.2142 16.7408 71.2142 17.3033C71.2142 17.8722 70.9969 18.3611 70.5622 18.7702C70.134 19.1729 69.6162 19.3743 69.009 19.3743ZM79.7404 36.2397C78.6218 36.2397 77.6087 35.9521 76.701 35.3768C75.7997 34.7951 75.0838 33.9418 74.5533 32.8168C74.0291 31.6854 73.767 30.2983 73.767 28.6555C73.767 26.968 74.0387 25.565 74.582 24.4464C75.1254 23.3214 75.8477 22.4808 76.7489 21.9247C77.6566 21.3622 78.6506 21.081 79.7308 21.081C80.5554 21.081 81.2425 21.2216 81.7923 21.5028C82.3484 21.7777 82.7958 22.1229 83.1346 22.5384C83.4798 22.9474 83.7418 23.3501 83.9208 23.7464H84.0455V16.3636H88.1204V36H84.0934V33.6413H83.9208C83.729 34.0504 83.4574 34.4563 83.1058 34.859C82.7607 35.2553 82.31 35.5845 81.7539 35.8466C81.2042 36.1087 80.533 36.2397 79.7404 36.2397ZM81.0348 32.9893C81.6932 32.9893 82.2493 32.8104 82.7031 32.4524C83.1634 32.0881 83.5149 31.5799 83.7578 30.9279C84.0071 30.2759 84.1317 29.5121 84.1317 28.6364C84.1317 27.7607 84.0103 27 83.7674 26.3544C83.5245 25.7088 83.1729 25.2102 82.7127 24.8587C82.2525 24.5071 81.6932 24.3313 81.0348 24.3313C80.3636 24.3313 79.7979 24.5135 79.3377 24.8778C78.8775 25.2422 78.5291 25.7472 78.2926 26.3928C78.0561 27.0384 77.9379 27.7862 77.9379 28.6364C77.9379 29.4929 78.0561 30.2504 78.2926 30.9087C78.5355 31.5607 78.8839 32.0721 79.3377 32.4428C79.7979 32.8072 80.3636 32.9893 81.0348 32.9893ZM98.1903 36.2876C96.6753 36.2876 95.3714 35.9808 94.2783 35.3672C93.1917 34.7472 92.3543 33.8714 91.7662 32.7401C91.1782 31.6023 90.8841 30.2567 90.8841 28.7035C90.8841 27.1886 91.1782 25.859 91.7662 24.7148C92.3543 23.5707 93.1821 22.679 94.2496 22.0398C95.3234 21.4006 96.5827 21.081 98.0273 21.081C98.9988 21.081 99.9033 21.2376 100.741 21.5508C101.584 21.8576 102.32 22.321 102.946 22.9411C103.579 23.5611 104.071 24.3409 104.422 25.2805C104.774 26.2138 104.95 27.3068 104.95 28.5597V29.6815H92.5141V27.1502H101.105C101.105 26.5621 100.977 26.0412 100.722 25.5874C100.466 25.1335 100.111 24.7788 99.6572 24.5231C99.2098 24.261 98.6888 24.13 98.0944 24.13C97.4743 24.13 96.9246 24.2738 96.4452 24.5614C95.9722 24.8427 95.6015 25.223 95.333 25.7024C95.0645 26.1754 94.9271 26.7028 94.9207 27.2844V29.6911C94.9207 30.4197 95.055 31.0494 95.3234 31.5799C95.5983 32.1104 95.985 32.5195 96.4836 32.8072C96.9822 33.0948 97.5734 33.2386 98.2574 33.2386C98.7112 33.2386 99.1267 33.1747 99.5038 33.0469C99.8809 32.919 100.204 32.7273 100.472 32.4716C100.741 32.2159 100.945 31.9027 101.086 31.532L104.864 31.7812C104.672 32.6889 104.279 33.4815 103.684 34.1591C103.096 34.8303 102.335 35.3544 101.402 35.7315C100.475 36.1023 99.4047 36.2876 98.1903 36.2876ZM124.593 22.011C124.517 21.2376 124.188 20.6367 123.606 20.2085C123.024 19.7802 122.235 19.5661 121.238 19.5661C120.56 19.5661 119.988 19.6619 119.521 19.8537C119.055 20.0391 118.697 20.2979 118.447 20.6303C118.205 20.9627 118.083 21.3398 118.083 21.7617C118.07 22.1133 118.144 22.4201 118.304 22.6822C118.47 22.9442 118.697 23.1712 118.984 23.3629C119.272 23.5483 119.604 23.7113 119.982 23.8519C120.359 23.9862 120.761 24.1012 121.19 24.1971L122.954 24.619C123.81 24.8107 124.597 25.0664 125.312 25.386C126.028 25.7056 126.648 26.0987 127.173 26.5653C127.697 27.032 128.103 27.5817 128.39 28.2145C128.684 28.8473 128.835 29.5728 128.841 30.391C128.835 31.5927 128.528 32.6346 127.92 33.5167C127.32 34.3924 126.45 35.0732 125.312 35.5589C124.181 36.0384 122.816 36.2781 121.218 36.2781C119.633 36.2781 118.252 36.0352 117.076 35.5494C115.907 35.0636 114.993 34.3445 114.334 33.392C113.682 32.4332 113.34 31.2475 113.308 29.8349H117.326C117.37 30.4933 117.559 31.043 117.891 31.484C118.23 31.9187 118.681 32.2479 119.243 32.4716C119.812 32.6889 120.455 32.7976 121.17 32.7976C121.874 32.7976 122.484 32.6953 123.002 32.4908C123.526 32.2862 123.932 32.0018 124.219 31.6374C124.507 31.2731 124.651 30.8544 124.651 30.3814C124.651 29.9403 124.52 29.5696 124.258 29.2692C124.002 28.9687 123.625 28.7131 123.126 28.5021C122.634 28.2912 122.03 28.0994 121.314 27.9268L119.176 27.3899C117.521 26.9872 116.213 26.3576 115.255 25.5011C114.296 24.6445 113.82 23.4908 113.826 22.0398C113.82 20.8509 114.136 19.8121 114.775 18.9237C115.421 18.0352 116.306 17.3416 117.431 16.843C118.556 16.3445 119.835 16.0952 121.266 16.0952C122.724 16.0952 123.996 16.3445 125.082 16.843C126.175 17.3416 127.026 18.0352 127.633 18.9237C128.24 19.8121 128.553 20.8413 128.572 22.011H124.593ZM134.078 41.5227C133.561 41.5227 133.075 41.4812 132.621 41.3981C132.174 41.3214 131.803 41.2223 131.509 41.1009L132.429 38.0518C132.909 38.1989 133.34 38.2788 133.724 38.2915C134.114 38.3043 134.449 38.2148 134.73 38.0231C135.018 37.8313 135.251 37.5053 135.43 37.0451L135.67 36.4219L130.387 21.2727H134.682L137.731 32.0881H137.885L140.963 21.2727H145.287L139.563 37.5916C139.288 38.3842 138.914 39.0746 138.441 39.6626C137.974 40.2571 137.383 40.7141 136.667 41.0337C135.951 41.3597 135.088 41.5227 134.078 41.5227ZM151.462 27.4858V36H147.377V21.2727H151.27V23.8711H151.442C151.768 23.0146 152.315 22.337 153.082 21.8384C153.849 21.3335 154.779 21.081 155.872 21.081C156.895 21.081 157.786 21.3047 158.547 21.7521C159.308 22.1996 159.899 22.8388 160.321 23.6697C160.743 24.4943 160.954 25.4787 160.954 26.6229V36H156.869V27.3516C156.876 26.4503 156.646 25.7472 156.179 25.2422C155.712 24.7308 155.07 24.4751 154.252 24.4751C153.702 24.4751 153.216 24.5934 152.794 24.8299C152.379 25.0664 152.053 25.4116 151.816 25.8654C151.586 26.3129 151.468 26.853 151.462 27.4858ZM170.827 36.2876C169.338 36.2876 168.05 35.9712 166.963 35.3384C165.883 34.6992 165.049 33.8107 164.461 32.6729C163.873 31.5288 163.578 30.2024 163.578 28.6939C163.578 27.1726 163.873 25.843 164.461 24.7053C165.049 23.5611 165.883 22.6726 166.963 22.0398C168.05 21.4006 169.338 21.081 170.827 21.081C172.316 21.081 173.601 21.4006 174.681 22.0398C175.768 22.6726 176.605 23.5611 177.194 24.7053C177.782 25.843 178.076 27.1726 178.076 28.6939C178.076 30.2024 177.782 31.5288 177.194 32.6729C176.605 33.8107 175.768 34.6992 174.681 35.3384C173.601 35.9712 172.316 36.2876 170.827 36.2876ZM170.846 33.1236C171.524 33.1236 172.089 32.9318 172.543 32.5483C172.997 32.1584 173.339 31.6278 173.569 30.9567C173.806 30.2855 173.924 29.5217 173.924 28.6651C173.924 27.8086 173.806 27.0447 173.569 26.3736C173.339 25.7024 172.997 25.1719 172.543 24.782C172.089 24.392 171.524 24.1971 170.846 24.1971C170.162 24.1971 169.587 24.392 169.12 24.782C168.66 25.1719 168.312 25.7024 168.075 26.3736C167.845 27.0447 167.73 27.8086 167.73 28.6651C167.73 29.5217 167.845 30.2855 168.075 30.9567C168.312 31.6278 168.66 32.1584 169.12 32.5483C169.587 32.9318 170.162 33.1236 170.846 33.1236ZM184.816 27.4858V36H180.732V21.2727H184.624V23.8711H184.797C185.123 23.0146 185.669 22.337 186.436 21.8384C187.203 21.3335 188.134 21.081 189.227 21.081C190.249 21.081 191.141 21.3047 191.902 21.7521C192.662 22.1996 193.254 22.8388 193.675 23.6697C194.097 24.4943 194.308 25.4787 194.308 26.6229V36H190.224V27.3516C190.23 26.4503 190 25.7472 189.533 25.2422C189.067 24.7308 188.424 24.4751 187.606 24.4751C187.056 24.4751 186.571 24.5934 186.149 24.8299C185.733 25.0664 185.407 25.4116 185.171 25.8654C184.941 26.3129 184.822 26.853 184.816 27.4858ZM199.522 41.5227C199.004 41.5227 198.518 41.4812 198.064 41.3981C197.617 41.3214 197.246 41.2223 196.952 41.1009L197.873 38.0518C198.352 38.1989 198.783 38.2788 199.167 38.2915C199.557 38.3043 199.892 38.2148 200.174 38.0231C200.461 37.8313 200.695 37.5053 200.874 37.0451L201.113 36.4219L195.83 21.2727H200.126L203.175 32.0881H203.328L206.406 21.2727H210.73L205.006 37.5916C204.731 38.3842 204.357 39.0746 203.884 39.6626C203.418 40.2571 202.826 40.7141 202.111 41.0337C201.395 41.3597 200.532 41.5227 199.522 41.5227ZM212.82 36V21.2727H216.713V23.8711H216.886C217.193 23.0082 217.704 22.3274 218.42 21.8288C219.136 21.3303 219.992 21.081 220.989 21.081C221.999 21.081 222.859 21.3335 223.569 21.8384C224.278 22.337 224.751 23.0146 224.988 23.8711H225.141C225.441 23.0273 225.985 22.353 226.771 21.848C227.564 21.3366 228.5 21.081 229.58 21.081C230.955 21.081 232.07 21.5188 232.927 22.3945C233.79 23.2638 234.221 24.4975 234.221 26.0955V36H230.146V26.9009C230.146 26.0827 229.929 25.4691 229.494 25.06C229.059 24.6509 228.516 24.4464 227.864 24.4464C227.123 24.4464 226.544 24.6829 226.129 25.1559C225.713 25.6225 225.505 26.2393 225.505 27.0064V36H221.546V26.8146C221.546 26.0923 221.338 25.517 220.922 25.0888C220.513 24.6605 219.973 24.4464 219.302 24.4464C218.848 24.4464 218.439 24.5614 218.075 24.7915C217.717 25.0153 217.432 25.3317 217.221 25.7408C217.01 26.1435 216.905 26.6165 216.905 27.1598V36H212.82Z" fill="#A9A9A9"/>
</svg>
