<svg width="282" height="53" viewBox="0 0 282 53" fill="none" xmlns="http://www.w3.org/2000/svg">
<rect width="282" height="53" rx="26.5" fill="#D9D9D9"/>
<path d="M73.4411 36V16.3636H77.5927V24.4656H86.0206V16.3636H90.1626V36H86.0206V27.8885H77.5927V36H73.4411ZM93.5089 36V21.2727H97.5934V36H93.5089ZM95.5607 19.3743C94.9535 19.3743 94.4325 19.1729 93.9979 18.7702C93.5696 18.3611 93.3555 17.8722 93.3555 17.3033C93.3555 16.7408 93.5696 16.2582 93.9979 15.8555C94.4325 15.4464 94.9535 15.2418 95.5607 15.2418C96.168 15.2418 96.6857 15.4464 97.114 15.8555C97.5487 16.2582 97.766 16.7408 97.766 17.3033C97.766 17.8722 97.5487 18.3611 97.114 18.7702C96.6857 19.1729 96.168 19.3743 95.5607 19.3743ZM106.292 36.2397C105.174 36.2397 104.16 35.9521 103.253 35.3768C102.351 34.7951 101.636 33.9418 101.105 32.8168C100.581 31.6854 100.319 30.2983 100.319 28.6555C100.319 26.968 100.59 25.565 101.134 24.4464C101.677 23.3214 102.399 22.4808 103.301 21.9247C104.208 21.3622 105.202 21.081 106.283 21.081C107.107 21.081 107.794 21.2216 108.344 21.5028C108.9 21.7777 109.348 22.1229 109.686 22.5384C110.032 22.9474 110.294 23.3501 110.473 23.7464H110.597V16.3636H114.672V36H110.645V33.6413H110.473C110.281 34.0504 110.009 34.4563 109.658 34.859C109.312 35.2553 108.862 35.5845 108.306 35.8466C107.756 36.1087 107.085 36.2397 106.292 36.2397ZM107.587 32.9893C108.245 32.9893 108.801 32.8104 109.255 32.4524C109.715 32.0881 110.067 31.5799 110.31 30.9279C110.559 30.2759 110.684 29.5121 110.684 28.6364C110.684 27.7607 110.562 27 110.319 26.3544C110.076 25.7088 109.725 25.2102 109.264 24.8587C108.804 24.5071 108.245 24.3313 107.587 24.3313C106.915 24.3313 106.35 24.5135 105.889 24.8778C105.429 25.2422 105.081 25.7472 104.844 26.3928C104.608 27.0384 104.49 27.7862 104.49 28.6364C104.49 29.4929 104.608 30.2504 104.844 30.9087C105.087 31.5607 105.436 32.0721 105.889 32.4428C106.35 32.8072 106.915 32.9893 107.587 32.9893ZM124.742 36.2876C123.227 36.2876 121.923 35.9808 120.83 35.3672C119.743 34.7472 118.906 33.8714 118.318 32.7401C117.73 31.6023 117.436 30.2567 117.436 28.7035C117.436 27.1886 117.73 25.859 118.318 24.7148C118.906 23.5707 119.734 22.679 120.801 22.0398C121.875 21.4006 123.134 21.081 124.579 21.081C125.551 21.081 126.455 21.2376 127.292 21.5508C128.136 21.8576 128.871 22.321 129.498 22.9411C130.131 23.5611 130.623 24.3409 130.974 25.2805C131.326 26.2138 131.502 27.3068 131.502 28.5597V29.6815H119.066V27.1502H127.657C127.657 26.5621 127.529 26.0412 127.273 25.5874C127.018 25.1335 126.663 24.7788 126.209 24.5231C125.762 24.261 125.241 24.13 124.646 24.13C124.026 24.13 123.476 24.2738 122.997 24.5614C122.524 24.8427 122.153 25.223 121.885 25.7024C121.616 26.1754 121.479 26.7028 121.472 27.2844V29.6911C121.472 30.4197 121.607 31.0494 121.875 31.5799C122.15 32.1104 122.537 32.5195 123.035 32.8072C123.534 33.0948 124.125 33.2386 124.809 33.2386C125.263 33.2386 125.678 33.1747 126.056 33.0469C126.433 32.919 126.756 32.7273 127.024 32.4716C127.292 32.2159 127.497 31.9027 127.638 31.532L131.415 31.7812C131.224 32.6889 130.83 33.4815 130.236 34.1591C129.648 34.8303 128.887 35.3544 127.954 35.7315C127.027 36.1023 125.956 36.2876 124.742 36.2876ZM144.913 36L139.294 16.3636H143.829L147.08 30.0075H147.243L150.829 16.3636H154.712L158.288 30.0362H158.461L161.711 16.3636H166.246L160.628 36H156.582L152.842 23.1616H152.689L148.959 36H144.913ZM173.464 36.2876C171.974 36.2876 170.686 35.9712 169.6 35.3384C168.52 34.6992 167.685 33.8107 167.097 32.6729C166.509 31.5288 166.215 30.2024 166.215 28.6939C166.215 27.1726 166.509 25.843 167.097 24.7053C167.685 23.5611 168.52 22.6726 169.6 22.0398C170.686 21.4006 171.974 21.081 173.464 21.081C174.953 21.081 176.238 21.4006 177.318 22.0398C178.405 22.6726 179.242 23.5611 179.83 24.7053C180.418 25.843 180.712 27.1726 180.712 28.6939C180.712 30.2024 180.418 31.5288 179.83 32.6729C179.242 33.8107 178.405 34.6992 177.318 35.3384C176.238 35.9712 174.953 36.2876 173.464 36.2876ZM173.483 33.1236C174.161 33.1236 174.726 32.9318 175.18 32.5483C175.634 32.1584 175.976 31.6278 176.206 30.9567C176.442 30.2855 176.561 29.5217 176.561 28.6651C176.561 27.8086 176.442 27.0447 176.206 26.3736C175.976 25.7024 175.634 25.1719 175.18 24.782C174.726 24.392 174.161 24.1971 173.483 24.1971C172.799 24.1971 172.224 24.392 171.757 24.782C171.297 25.1719 170.949 25.7024 170.712 26.3736C170.482 27.0447 170.367 27.8086 170.367 28.6651C170.367 29.5217 170.482 30.2855 170.712 30.9567C170.949 31.6278 171.297 32.1584 171.757 32.5483C172.224 32.9318 172.799 33.1236 173.483 33.1236ZM183.368 36V21.2727H187.328V23.8423H187.482C187.75 22.9283 188.201 22.2379 188.833 21.7713C189.466 21.2983 190.195 21.0618 191.02 21.0618C191.224 21.0618 191.445 21.0746 191.681 21.1001C191.918 21.1257 192.125 21.1609 192.304 21.2056V24.8299C192.113 24.7724 191.847 24.7212 191.509 24.6765C191.17 24.6317 190.86 24.6094 190.578 24.6094C189.978 24.6094 189.441 24.7404 188.968 25.0025C188.501 25.2582 188.13 25.6161 187.855 26.0763C187.587 26.5366 187.453 27.0671 187.453 27.668V36H183.368ZM199.157 36.2397C198.039 36.2397 197.026 35.9521 196.118 35.3768C195.217 34.7951 194.501 33.9418 193.97 32.8168C193.446 31.6854 193.184 30.2983 193.184 28.6555C193.184 26.968 193.456 25.565 193.999 24.4464C194.542 23.3214 195.265 22.4808 196.166 21.9247C197.074 21.3622 198.068 21.081 199.148 21.081C199.972 21.081 200.66 21.2216 201.209 21.5028C201.765 21.7777 202.213 22.1229 202.552 22.5384C202.897 22.9474 203.159 23.3501 203.338 23.7464H203.462V16.3636H207.537V36H203.51V33.6413H203.338C203.146 34.0504 202.874 34.4563 202.523 34.859C202.178 35.2553 201.727 35.5845 201.171 35.8466C200.621 36.1087 199.95 36.2397 199.157 36.2397ZM200.452 32.9893C201.11 32.9893 201.666 32.8104 202.12 32.4524C202.58 32.0881 202.932 31.5799 203.175 30.9279C203.424 30.2759 203.549 29.5121 203.549 28.6364C203.549 27.7607 203.427 27 203.184 26.3544C202.941 25.7088 202.59 25.2102 202.13 24.8587C201.669 24.5071 201.11 24.3313 200.452 24.3313C199.781 24.3313 199.215 24.5135 198.755 24.8778C198.294 25.2422 197.946 25.7472 197.71 26.3928C197.473 27.0384 197.355 27.7862 197.355 28.6364C197.355 29.4929 197.473 30.2504 197.71 30.9087C197.953 31.5607 198.301 32.0721 198.755 32.4428C199.215 32.8072 199.781 32.9893 200.452 32.9893Z" fill="#A9A9A9"/>
</svg>
