<svg width="282" height="53" viewBox="0 0 282 53" fill="none" xmlns="http://www.w3.org/2000/svg">
<rect width="282" height="53" rx="26.5" fill="#D9D9D9"/>
<path d="M44.2262 36V16.3636H48.3778V24.4656H56.8058V16.3636H60.9478V36H56.8058V27.8885H48.3778V36H44.2262ZM64.294 36V21.2727H68.3786V36H64.294ZM66.3459 19.3743C65.7386 19.3743 65.2177 19.1729 64.783 18.7702C64.3548 18.3611 64.1406 17.8722 64.1406 17.3033C64.1406 16.7408 64.3548 16.2582 64.783 15.8555C65.2177 15.4464 65.7386 15.2418 66.3459 15.2418C66.9531 15.2418 67.4709 15.4464 67.8991 15.8555C68.3338 16.2582 68.5511 16.7408 68.5511 17.3033C68.5511 17.8722 68.3338 18.3611 67.8991 18.7702C67.4709 19.1729 66.9531 19.3743 66.3459 19.3743ZM77.0773 36.2397C75.9587 36.2397 74.9456 35.9521 74.0379 35.3768C73.1366 34.7951 72.4207 33.9418 71.8902 32.8168C71.366 31.6854 71.104 30.2983 71.104 28.6555C71.104 26.968 71.3756 25.565 71.9189 24.4464C72.4623 23.3214 73.1846 22.4808 74.0858 21.9247C74.9935 21.3622 75.9875 21.081 77.0677 21.081C77.8923 21.081 78.5795 21.2216 79.1292 21.5028C79.6853 21.7777 80.1327 22.1229 80.4715 22.5384C80.8167 22.9474 81.0787 23.3501 81.2577 23.7464H81.3824V16.3636H85.4573V36H81.4303V33.6413H81.2577C81.066 34.0504 80.7943 34.4563 80.4427 34.859C80.0976 35.2553 79.6469 35.5845 79.0908 35.8466C78.5411 36.1087 77.8699 36.2397 77.0773 36.2397ZM78.3717 32.9893C79.0301 32.9893 79.5862 32.8104 80.04 32.4524C80.5003 32.0881 80.8518 31.5799 81.0947 30.9279C81.344 30.2759 81.4687 29.5121 81.4687 28.6364C81.4687 27.7607 81.3472 27 81.1043 26.3544C80.8614 25.7088 80.5099 25.2102 80.0496 24.8587C79.5894 24.5071 79.0301 24.3313 78.3717 24.3313C77.7006 24.3313 77.1349 24.5135 76.6746 24.8778C76.2144 25.2422 75.866 25.7472 75.6295 26.3928C75.393 27.0384 75.2748 27.7862 75.2748 28.6364C75.2748 29.4929 75.393 30.2504 75.6295 30.9087C75.8724 31.5607 76.2208 32.0721 76.6746 32.4428C77.1349 32.8072 77.7006 32.9893 78.3717 32.9893ZM95.5272 36.2876C94.0123 36.2876 92.7083 35.9808 91.6152 35.3672C90.5286 34.7472 89.6912 33.8714 89.1032 32.7401C88.5151 31.6023 88.2211 30.2567 88.2211 28.7035C88.2211 27.1886 88.5151 25.859 89.1032 24.7148C89.6912 23.5707 90.519 22.679 91.5865 22.0398C92.6603 21.4006 93.9196 21.081 95.3642 21.081C96.3358 21.081 97.2402 21.2376 98.0776 21.5508C98.9213 21.8576 99.6564 22.321 100.283 22.9411C100.916 23.5611 101.408 24.3409 101.759 25.2805C102.111 26.2138 102.287 27.3068 102.287 28.5597V29.6815H89.851V27.1502H98.4419C98.4419 26.5621 98.3141 26.0412 98.0584 25.5874C97.8027 25.1335 97.448 24.7788 96.9941 24.5231C96.5467 24.261 96.0257 24.13 95.4313 24.13C94.8113 24.13 94.2615 24.2738 93.7821 24.5614C93.3091 24.8427 92.9384 25.223 92.6699 25.7024C92.4015 26.1754 92.264 26.7028 92.2576 27.2844V29.6911C92.2576 30.4197 92.3919 31.0494 92.6603 31.5799C92.9352 32.1104 93.3219 32.5195 93.8205 32.8072C94.3191 33.0948 94.9103 33.2386 95.5943 33.2386C96.0481 33.2386 96.4636 33.1747 96.8407 33.0469C97.2179 32.919 97.5407 32.7273 97.8091 32.4716C98.0776 32.2159 98.2821 31.9027 98.4228 31.532L102.2 31.7812C102.009 32.6889 101.616 33.4815 101.021 34.1591C100.433 34.8303 99.6724 35.3544 98.7392 35.7315C97.8123 36.1023 96.7417 36.2876 95.5272 36.2876ZM118.239 36H111.278V16.3636H118.296C120.272 16.3636 121.972 16.7567 123.397 17.543C124.823 18.3228 125.919 19.4446 126.686 20.9084C127.459 22.3722 127.846 24.1236 127.846 26.1626C127.846 28.2081 127.459 29.9659 126.686 31.4361C125.919 32.9062 124.816 34.0344 123.378 34.8207C121.946 35.6069 120.233 36 118.239 36ZM115.43 32.4428H118.066C119.294 32.4428 120.326 32.2255 121.163 31.7908C122.007 31.3498 122.64 30.669 123.062 29.7486C123.49 28.8217 123.704 27.6264 123.704 26.1626C123.704 24.7116 123.49 23.5259 123.062 22.6055C122.64 21.685 122.01 21.0075 121.173 20.5728C120.335 20.1381 119.303 19.9208 118.076 19.9208H115.43V32.4428ZM137.556 36.2876C136.042 36.2876 134.738 35.9808 133.645 35.3672C132.558 34.7472 131.721 33.8714 131.132 32.7401C130.544 31.6023 130.25 30.2567 130.25 28.7035C130.25 27.1886 130.544 25.859 131.132 24.7148C131.721 23.5707 132.548 22.679 133.616 22.0398C134.69 21.4006 135.949 21.081 137.393 21.081C138.365 21.081 139.27 21.2376 140.107 21.5508C140.951 21.8576 141.686 22.321 142.312 22.9411C142.945 23.5611 143.437 24.3409 143.789 25.2805C144.14 26.2138 144.316 27.3068 144.316 28.5597V29.6815H131.88V27.1502H140.471C140.471 26.5621 140.343 26.0412 140.088 25.5874C139.832 25.1335 139.477 24.7788 139.023 24.5231C138.576 24.261 138.055 24.13 137.461 24.13C136.841 24.13 136.291 24.2738 135.811 24.5614C135.338 24.8427 134.968 25.223 134.699 25.7024C134.431 26.1754 134.293 26.7028 134.287 27.2844V29.6911C134.287 30.4197 134.421 31.0494 134.69 31.5799C134.964 32.1104 135.351 32.5195 135.85 32.8072C136.348 33.0948 136.94 33.2386 137.624 33.2386C138.077 33.2386 138.493 33.1747 138.87 33.0469C139.247 32.919 139.57 32.7273 139.838 32.4716C140.107 32.2159 140.311 31.9027 140.452 31.532L144.23 31.7812C144.038 32.6889 143.645 33.4815 143.05 34.1591C142.462 34.8303 141.702 35.3544 140.768 35.7315C139.842 36.1023 138.771 36.2876 137.556 36.2876ZM154.901 21.2727V24.3409H145.812V21.2727H154.901ZM147.892 36V20.2085C147.892 19.141 148.1 18.2557 148.516 17.5526C148.938 16.8494 149.513 16.3221 150.241 15.9705C150.97 15.619 151.798 15.4432 152.725 15.4432C153.351 15.4432 153.923 15.4911 154.441 15.587C154.965 15.6829 155.355 15.7692 155.611 15.8459L154.882 18.9141C154.722 18.8629 154.524 18.815 154.288 18.7702C154.058 18.7255 153.821 18.7031 153.578 18.7031C152.977 18.7031 152.559 18.8438 152.322 19.125C152.086 19.3999 151.967 19.7866 151.967 20.2852V36H147.892ZM157.397 36V21.2727H161.481V36H157.397ZM159.448 19.3743C158.841 19.3743 158.32 19.1729 157.886 18.7702C157.457 18.3611 157.243 17.8722 157.243 17.3033C157.243 16.7408 157.457 16.2582 157.886 15.8555C158.32 15.4464 158.841 15.2418 159.448 15.2418C160.056 15.2418 160.573 15.4464 161.002 15.8555C161.436 16.2582 161.654 16.7408 161.654 17.3033C161.654 17.8722 161.436 18.3611 161.002 18.7702C160.573 19.1729 160.056 19.3743 159.448 19.3743ZM168.838 27.4858V36H164.753V21.2727H168.646V23.8711H168.818C169.144 23.0146 169.691 22.337 170.458 21.8384C171.225 21.3335 172.155 21.081 173.248 21.081C174.271 21.081 175.162 21.3047 175.923 21.7521C176.684 22.1996 177.275 22.8388 177.697 23.6697C178.119 24.4943 178.33 25.4787 178.33 26.6229V36H174.245V27.3516C174.252 26.4503 174.021 25.7472 173.555 25.2422C173.088 24.7308 172.446 24.4751 171.628 24.4751C171.078 24.4751 170.592 24.5934 170.17 24.8299C169.755 25.0664 169.429 25.4116 169.192 25.8654C168.962 26.3129 168.844 26.853 168.838 27.4858ZM181.549 36V21.2727H185.633V36H181.549ZM183.601 19.3743C182.994 19.3743 182.473 19.1729 182.038 18.7702C181.61 18.3611 181.396 17.8722 181.396 17.3033C181.396 16.7408 181.61 16.2582 182.038 15.8555C182.473 15.4464 182.994 15.2418 183.601 15.2418C184.208 15.2418 184.726 15.4464 185.154 15.8555C185.589 16.2582 185.806 16.7408 185.806 17.3033C185.806 17.8722 185.589 18.3611 185.154 18.7702C184.726 19.1729 184.208 19.3743 183.601 19.3743ZM196.739 21.2727V24.3409H187.87V21.2727H196.739ZM189.883 17.7443H193.968V31.4744C193.968 31.8516 194.025 32.1456 194.14 32.3565C194.256 32.5611 194.415 32.7049 194.62 32.788C194.831 32.8711 195.074 32.9126 195.349 32.9126C195.54 32.9126 195.732 32.8967 195.924 32.8647C196.116 32.8263 196.263 32.7976 196.365 32.7784L197.007 35.8178C196.803 35.8817 196.515 35.9553 196.144 36.0384C195.774 36.1278 195.323 36.1822 194.792 36.2013C193.808 36.2397 192.945 36.1087 192.204 35.8082C191.469 35.5078 190.896 35.0412 190.487 34.4084C190.078 33.7756 189.877 32.9766 189.883 32.0114V17.7443ZM199.4 36V21.2727H203.484V36H199.4ZM201.451 19.3743C200.844 19.3743 200.323 19.1729 199.888 18.7702C199.46 18.3611 199.246 17.8722 199.246 17.3033C199.246 16.7408 199.46 16.2582 199.888 15.8555C200.323 15.4464 200.844 15.2418 201.451 15.2418C202.059 15.2418 202.576 15.4464 203.005 15.8555C203.439 16.2582 203.657 16.7408 203.657 17.3033C203.657 17.8722 203.439 18.3611 203.005 18.7702C202.576 19.1729 202.059 19.3743 201.451 19.3743ZM213.41 36.2876C211.921 36.2876 210.633 35.9712 209.546 35.3384C208.466 34.6992 207.632 33.8107 207.044 32.6729C206.456 31.5288 206.161 30.2024 206.161 28.6939C206.161 27.1726 206.456 25.843 207.044 24.7053C207.632 23.5611 208.466 22.6726 209.546 22.0398C210.633 21.4006 211.921 21.081 213.41 21.081C214.899 21.081 216.184 21.4006 217.264 22.0398C218.351 22.6726 219.188 23.5611 219.777 24.7053C220.365 25.843 220.659 27.1726 220.659 28.6939C220.659 30.2024 220.365 31.5288 219.777 32.6729C219.188 33.8107 218.351 34.6992 217.264 35.3384C216.184 35.9712 214.899 36.2876 213.41 36.2876ZM213.429 33.1236C214.107 33.1236 214.672 32.9318 215.126 32.5483C215.58 32.1584 215.922 31.6278 216.152 30.9567C216.389 30.2855 216.507 29.5217 216.507 28.6651C216.507 27.8086 216.389 27.0447 216.152 26.3736C215.922 25.7024 215.58 25.1719 215.126 24.782C214.672 24.392 214.107 24.1971 213.429 24.1971C212.745 24.1971 212.17 24.392 211.703 24.782C211.243 25.1719 210.895 25.7024 210.658 26.3736C210.428 27.0447 210.313 27.8086 210.313 28.6651C210.313 29.5217 210.428 30.2855 210.658 30.9567C210.895 31.6278 211.243 32.1584 211.703 32.5483C212.17 32.9318 212.745 33.1236 213.429 33.1236ZM227.399 27.4858V36H223.315V21.2727H227.207V23.8711H227.38C227.706 23.0146 228.252 22.337 229.019 21.8384C229.786 21.3335 230.717 21.081 231.81 21.081C232.832 21.081 233.724 21.3047 234.485 21.7521C235.245 22.1996 235.837 22.8388 236.258 23.6697C236.68 24.4943 236.891 25.4787 236.891 26.6229V36H232.807V27.3516C232.813 26.4503 232.583 25.7472 232.116 25.2422C231.65 24.7308 231.007 24.4751 230.189 24.4751C229.639 24.4751 229.154 24.5934 228.732 24.8299C228.316 25.0664 227.99 25.4116 227.754 25.8654C227.524 26.3129 227.405 26.853 227.399 27.4858Z" fill="#A9A9A9"/>
</svg>
