<svg width="109" height="109" viewBox="0 0 109 109" fill="none" xmlns="http://www.w3.org/2000/svg">
<path fill-rule="evenodd" clip-rule="evenodd" d="M54.5 109C84.5995 109 109 84.5995 109 54.5C109 24.4005 84.5995 0 54.5 0C24.4005 0 0 24.4005 0 54.5C0 84.5995 24.4005 109 54.5 109ZM40.3246 31.7331C44.0842 27.9736 49.1832 25.8615 54.5 25.8615C59.8168 25.8615 64.9158 27.9736 68.6753 31.7331C72.4349 35.4926 74.5469 40.5917 74.5469 45.9084C74.5469 52.7244 71.139 58.7099 65.9554 62.347V68.8193C65.9554 69.5788 65.6537 70.3072 65.1166 70.8443C64.5795 71.3814 63.8511 71.6831 63.0915 71.6831H45.9084C45.1489 71.6831 44.4204 71.3814 43.8834 70.8443C43.3463 70.3072 43.0446 69.5788 43.0446 68.8193V62.347C37.861 58.7099 34.453 52.7244 34.453 45.9084C34.453 40.5917 36.5651 35.4926 40.3246 31.7331ZM46.7472 82.2997C46.2101 81.7627 45.9084 81.0342 45.9084 80.2747V77.4108H63.0915V80.2747C63.0915 81.0342 62.7898 81.7627 62.2527 82.2997C61.7157 82.8368 60.9872 83.1385 60.2277 83.1385H48.7723C48.0127 83.1385 47.2843 82.8368 46.7472 82.2997Z" fill="#A9A9A9"/>
</svg>
