<svg width="34" height="33" viewBox="0 0 34 33" fill="none" xmlns="http://www.w3.org/2000/svg">
<rect width="34" height="33" rx="12" fill="#D9D9D9"/>
<path fill-rule="evenodd" clip-rule="evenodd" d="M12.9922 8.11309C12.7976 8.18775 12.621 8.29714 12.4725 8.43497C12.3228 8.57167 12.204 8.73431 12.1229 8.91351C12.0419 9.0927 12.0001 9.2849 12.0001 9.47903C12.0001 9.67315 12.0419 9.86535 12.1229 10.0445C12.204 10.2237 12.3228 10.3864 12.4725 10.5231L19.3397 16.8315L12.4725 23.14C12.3228 23.2767 12.204 23.4393 12.1229 23.6185C12.0419 23.7977 12.0001 23.9899 12.0001 24.184C12.0001 24.3781 12.0419 24.5703 12.1229 24.7495C12.204 24.9287 12.3228 25.0914 12.4725 25.2281C12.621 25.3659 12.7976 25.4753 12.9922 25.55C13.1868 25.6246 13.3956 25.663 13.6064 25.663C13.8172 25.663 14.026 25.6246 14.2206 25.55C14.4152 25.4753 14.5918 25.3659 14.7403 25.2281L22.7254 17.8756C22.875 17.7389 22.9939 17.5762 23.0749 17.397C23.156 17.2178 23.1978 17.0256 23.1978 16.8315C23.1978 16.6374 23.156 16.4452 23.0749 16.266C22.9939 16.0868 22.875 15.9242 22.7254 15.7875L14.7403 8.43497C14.5918 8.29714 14.4152 8.18775 14.2206 8.11309C14.026 8.03844 13.8172 8 13.6064 8C13.3956 8 13.1868 8.03844 12.9922 8.11309Z" fill="#A9A9A9"/>
</svg>
