<svg width="35" height="34" viewBox="0 0 35 34" fill="none" xmlns="http://www.w3.org/2000/svg">
<rect x="34.427" y="32.9971" width="34" height="33" rx="12" transform="rotate(179.254 34.427 32.9971)" fill="#D9D9D9"/>
<path fill-rule="evenodd" clip-rule="evenodd" d="M21.3301 25.0538C21.5238 24.9766 21.699 24.8649 21.8456 24.7252C21.9935 24.5865 22.1102 24.4223 22.1889 24.2421C22.2677 24.0619 22.3069 23.8691 22.3044 23.675C22.3018 23.4809 22.2576 23.2893 22.1742 23.1112C22.0908 22.933 21.9699 22.772 21.8184 22.6372L14.8696 16.4188L21.654 10.0214C21.8019 9.88276 21.9186 9.71859 21.9974 9.53836C22.0761 9.35812 22.1153 9.16539 22.1128 8.97129C22.1103 8.77718 22.066 8.58554 21.9826 8.40741C21.8992 8.22929 21.7783 8.06822 21.6268 7.93348C21.4766 7.79759 21.2986 7.6905 21.103 7.61839C20.9074 7.54628 20.6982 7.51056 20.4874 7.51331C20.2766 7.51606 20.0684 7.55721 19.8747 7.63439C19.6811 7.71158 19.5059 7.82327 19.3593 7.96302L11.4707 15.4189C11.3228 15.5576 11.2061 15.7217 11.1273 15.902C11.0486 16.0822 11.0094 16.2749 11.0119 16.469C11.0144 16.6631 11.0587 16.8548 11.1421 17.0329C11.2255 17.211 11.3464 17.3721 11.4979 17.5068L19.578 24.7547C19.7283 24.8906 19.9063 24.9977 20.1019 25.0698C20.2975 25.1419 20.5067 25.1776 20.7175 25.1749C20.9283 25.1721 21.1365 25.131 21.3301 25.0538Z" fill="#A9A9A9"/>
</svg>
