<svg width="71" height="71" viewBox="0 0 71 71" fill="none" xmlns="http://www.w3.org/2000/svg">
<circle cx="35.5" cy="35.5" r="35.5" fill="#D9D9D9"/>
<path d="M51.75 22.25H45V20C45 17.6131 44.0518 15.3239 42.364 13.636C40.6761 11.9482 38.3869 11 36 11C33.6131 11 31.3239 11.9482 29.636 13.636C27.9482 15.3239 27 17.6131 27 20V22.25H20.25C19.6533 22.25 19.081 22.4871 18.659 22.909C18.2371 23.331 18 23.9033 18 24.5V49.25C18 51.0402 18.7112 52.7571 19.977 54.023C21.2429 55.2888 22.9598 56 24.75 56H47.25C49.0402 56 50.7571 55.2888 52.023 54.023C53.2888 52.7571 54 51.0402 54 49.25V24.5C54 23.9033 53.7629 23.331 53.341 22.909C52.919 22.4871 52.3467 22.25 51.75 22.25ZM31.5 20C31.5 18.8065 31.9741 17.6619 32.818 16.818C33.6619 15.9741 34.8065 15.5 36 15.5C37.1935 15.5 38.3381 15.9741 39.182 16.818C40.0259 17.6619 40.5 18.8065 40.5 20V22.25H31.5V20ZM49.5 49.25C49.5 49.8467 49.2629 50.419 48.841 50.841C48.419 51.2629 47.8467 51.5 47.25 51.5H24.75C24.1533 51.5 23.581 51.2629 23.159 50.841C22.7371 50.419 22.5 49.8467 22.5 49.25V26.75H27V29C27 29.5967 27.2371 30.169 27.659 30.591C28.081 31.0129 28.6533 31.25 29.25 31.25C29.8467 31.25 30.419 31.0129 30.841 30.591C31.2629 30.169 31.5 29.5967 31.5 29V26.75H40.5V29C40.5 29.5967 40.7371 30.169 41.159 30.591C41.581 31.0129 42.1533 31.25 42.75 31.25C43.3467 31.25 43.919 31.0129 44.341 30.591C44.7629 30.169 45 29.5967 45 29V26.75H49.5V49.25Z" fill="#A9A9A9"/>
</svg>
