<svg width="109" height="109" viewBox="0 0 109 109" fill="none" xmlns="http://www.w3.org/2000/svg">
<path fill-rule="evenodd" clip-rule="evenodd" d="M54.5 109C84.5995 109 109 84.5995 109 54.5C109 24.4005 84.5995 0 54.5 0C24.4005 0 0 24.4005 0 54.5C0 84.5995 24.4005 109 54.5 109ZM49.8212 30.531C51.1399 28.8706 52.7981 28 54.5 28C56.2019 28 57.8602 28.8706 59.1788 30.531C60.4976 32.1915 61.3708 34.5886 61.3708 37.2538C61.3708 39.919 60.4974 42.3161 59.1788 43.9766C57.8601 45.637 56.2019 46.5076 54.5 46.5076C52.7981 46.5076 51.1398 45.637 49.8212 43.9766C48.5024 42.3161 47.6292 39.919 47.6292 37.2538C47.6292 34.5886 48.5026 32.1915 49.8212 30.531ZM35.7881 60.2126C35.7881 60.2126 38.1271 43.3449 42.8051 43.3449C42.8051 43.3449 44.3988 43.3472 46.566 43.5487C46.872 44.1022 47.217 44.6249 47.6015 45.1086C49.2455 47.1788 51.6806 48.6161 54.5 48.6161C57.3195 48.6161 59.7547 47.1788 61.3987 45.1086C61.783 44.6249 62.1282 44.1022 62.434 43.5487C64.6012 43.3472 66.1949 43.3449 66.1949 43.3449C70.8729 43.3449 73.2119 60.2126 73.2119 60.2126C73.2119 58.3384 75.5508 52.7158 77.8898 48.9675C80.2288 48.9675 89.0039 50.8416 89 52.013V54.59L80.2288 52.7158C80.2288 52.7158 75.5508 67.7093 73.2119 67.7093C70.8729 67.7093 66.1949 54.59 66.1949 54.59L63.8559 82H45.1441L42.8051 54.59C42.8051 54.59 38.1271 67.7093 35.7881 67.7093C33.4492 67.7093 28.7712 52.7158 28.7712 52.7158L20 54.59V52.013C19.9997 50.8416 28.7712 48.9675 31.1102 48.9675C33.4492 52.7158 35.7881 58.3384 35.7881 60.2126Z" fill="#A9A9A9"/>
</svg>
