<svg width="45" height="45" viewBox="0 0 45 45" fill="none" xmlns="http://www.w3.org/2000/svg">
<circle cx="22.5" cy="22.5" r="22.5" fill="#D9D9D9"/>
<path d="M12.1666 16.042C12.1666 13.7442 12.1666 12.5948 12.8805 11.8809C13.5945 11.167 14.7439 11.167 17.0416 11.167C19.3394 11.167 20.4888 11.167 21.2027 11.8809C21.9166 12.5948 21.9166 13.7442 21.9166 16.042C21.9166 18.3397 21.9166 19.4892 21.2027 20.2031C20.4888 20.917 19.3394 20.917 17.0416 20.917C14.7439 20.917 13.5945 20.917 12.8805 20.2031C12.1666 19.4892 12.1666 18.3397 12.1666 16.042ZM24.0833 27.9587C24.0833 25.6609 24.0833 24.5115 24.7972 23.7976C25.5111 23.0837 26.6605 23.0837 28.9583 23.0837C31.256 23.0837 32.4055 23.0837 33.1194 23.7976C33.8333 24.5115 33.8333 25.6609 33.8333 27.9587C33.8333 30.2564 33.8333 31.4058 33.1194 32.1197C32.4055 32.8337 31.256 32.8337 28.9583 32.8337C26.6605 32.8337 25.5111 32.8337 24.7972 32.1197C24.0833 31.4058 24.0833 30.2564 24.0833 27.9587ZM12.1666 27.9587C12.1666 25.6609 12.1666 24.5115 12.8805 23.7976C13.5945 23.0837 14.7439 23.0837 17.0416 23.0837C19.3394 23.0837 20.4888 23.0837 21.2027 23.7976C21.9166 24.5115 21.9166 25.6609 21.9166 27.9587C21.9166 30.2564 21.9166 31.4058 21.2027 32.1197C20.4888 32.8337 19.3394 32.8337 17.0416 32.8337C14.7439 32.8337 13.5945 32.8337 12.8805 32.1197C12.1666 31.4058 12.1666 30.2564 12.1666 27.9587ZM24.0833 16.042C24.0833 13.7442 24.0833 12.5948 24.7972 11.8809C25.5111 11.167 26.6605 11.167 28.9583 11.167C31.256 11.167 32.4055 11.167 33.1194 11.8809C33.8333 12.5948 33.8333 13.7442 33.8333 16.042C33.8333 18.3397 33.8333 19.4892 33.1194 20.2031C32.4055 20.917 31.256 20.917 28.9583 20.917C26.6605 20.917 25.5111 20.917 24.7972 20.2031C24.0833 19.4892 24.0833 18.3397 24.0833 16.042Z" fill="#9B9B9B"/>
</svg>
